<svg t="1580793678400" class="icon" viewBox="0 0 1024 1024" version="1.1" xmlns="http://www.w3.org/2000/svg" p-id="5702" width="128" height="128"><path d="M512.3 289.1m-224.9 0a224.9 224.9 0 1 0 449.8 0 224.9 224.9 0 1 0-449.8 0Z" fill="#ffffff" p-id="5703"></path><path d="M955.8 903.4c-27-215.1-207.1-382.6-427.7-389.9h-0.1c-5-0.2-10-0.3-15.1-0.3-5.4 0-10.7 0.1-16 0.3-220.2 7.8-399.8 175.1-426.7 389.9-3.7 29.8 19.7 56.2 49.8 56.2h786.1c30 0 53.5-26.3 49.7-56.2zM734.3 747.8c0 6.6-5.4 12-12 12H591.2c-6.6 0-12-5.4-12-12v-57.9c0-6.6 5.4-12 12-12h131.1c6.6 0 12 5.4 12 12v57.9z" fill="#ffffff" p-id="5704"></path></svg>
